<svg width="48" height="48" viewBox="0 0 48 48" fill="none" xmlns="http://www.w3.org/2000/svg">
<path d="M48 48V45.3333C48 40.9147 44.4187 37.3333 40 37.3333H18.6667C14.2493 37.3333 10.6667 40.9147 10.6667 45.3333V48H48Z" fill="#77B255"/>
<path d="M29.3333 45.3333C30.356 45.3333 36 41.3333 36 37.3333H22.6667C22.6667 41.3333 28.3107 45.3333 29.3333 45.3333Z" fill="#3E721D"/>
<path d="M23.52 37.384C23.52 41.1787 35.1467 41.3333 35.1467 37.384V32.3853H23.52V37.384Z" fill="#FFDC5D"/>
<path d="M23.5093 34.6307C25.1307 36.4627 27.1413 36.9587 29.328 36.9587C31.5133 36.9587 33.5227 36.4613 35.1453 34.6307V29.976H23.508L23.5093 34.6307Z" fill="#F9CA55"/>
<path d="M20.592 21.248C20.592 23.1787 19.6133 24.744 18.4067 24.744C17.2 24.744 16.2213 23.1787 16.2213 21.248C16.2213 19.3173 17.2 17.7507 18.4067 17.7507C19.6133 17.7493 20.592 19.316 20.592 21.248ZM42.444 21.248C42.444 23.1787 41.4667 24.744 40.2587 24.744C39.052 24.744 38.0733 23.1787 38.0733 21.248C38.0733 19.3173 39.0507 17.7507 40.2587 17.7507C41.4667 17.7493 42.444 19.316 42.444 21.248Z" fill="#FFDC5D"/>
<path d="M17.9693 22.612C17.9693 15.16 23.0573 9.11732 29.3333 9.11732C35.6093 9.11732 40.696 15.16 40.696 22.612C40.696 30.064 35.6093 36.1067 29.3333 36.1067C23.0587 36.1067 17.9693 30.0653 17.9693 22.612Z" fill="#FFDC5D"/>
<path d="M29.3333 31.736C25.6613 31.736 24.5333 30.796 24.3453 30.6053C24.004 30.264 24.004 29.7107 24.3453 29.3693C24.676 29.0387 25.2067 29.0293 25.548 29.3387C25.6173 29.388 26.5093 29.988 29.3333 29.988C32.2667 29.988 33.1147 29.3413 33.1227 29.3347C33.464 28.9947 33.9987 29.0107 34.34 29.3547C34.6813 29.696 34.6627 30.2653 34.3213 30.6053C34.1333 30.796 33.0053 31.736 29.3333 31.736Z" fill="#C1694F"/>
<path d="M29.3333 4.64C36.864 4.64 41.5707 10.1973 41.5707 14.828C41.5707 19.4587 40.6293 21.312 39.688 19.4587L37.8053 15.7547C37.8053 15.7547 32.1587 15.7547 30.276 13.9013C30.276 13.9013 33.1 19.4587 27.452 13.9013C27.452 13.9013 28.3933 17.6067 22.7453 12.976C22.7453 12.976 19.9213 14.828 18.98 19.4587C18.7187 20.744 17.0973 19.4587 17.0973 14.828C17.096 10.1973 20.8613 4.64 29.3333 4.64Z" fill="#FFAC33"/>
<path d="M24 22.6667C23.2667 22.6667 22.6667 22.0667 22.6667 21.3333V20C22.6667 19.2667 23.2667 18.6667 24 18.6667C24.7333 18.6667 25.3333 19.2667 25.3333 20V21.3333C25.3333 22.0667 24.7333 22.6667 24 22.6667ZM34.6667 22.6667C33.9333 22.6667 33.3333 22.0667 33.3333 21.3333V20C33.3333 19.2667 33.9333 18.6667 34.6667 18.6667C35.4 18.6667 36 19.2667 36 20V21.3333C36 22.0667 35.4 22.6667 34.6667 22.6667Z" fill="#662113"/>
<path d="M30.3333 26.3333H28.3333C27.7827 26.3333 27.3333 25.884 27.3333 25.3333C27.3333 24.7827 27.7827 24.3333 28.3333 24.3333H30.3333C30.884 24.3333 31.3333 24.7827 31.3333 25.3333C31.3333 25.884 30.884 26.3333 30.3333 26.3333Z" fill="#C1694F"/>
<path d="M17.3333 37.3333H21.3333V48H17.3333V37.3333ZM37.3333 37.3333H41.3333V48H37.3333V37.3333Z" fill="#3B88C3"/>
<path d="M17.5 46.6667H41.3333V48H17.5V46.6667Z" fill="#3B88C3"/>
<path d="M40 11.7333C40 13.4933 35.8773 14.6667 29.3333 14.6667C22.788 14.6667 18.6667 13.4933 18.6667 11.7333C18.6667 7.004 24 0 25.7773 0C27.556 0 28.7413 2.34667 29.3333 2.34667C29.9253 2.34667 31.1107 0 32.8893 0C34.6667 0 40 7.004 40 11.7333Z" fill="#C1694F"/>
<path d="M47.9213 10.6667C47.9213 12.876 43.2547 18.6667 29.2547 18.6667C15.2547 18.6667 10.588 12.876 10.588 10.6667C10.588 8.45734 19.6813 9.33334 29.2547 9.33334C38.828 9.33334 47.9213 8.45734 47.9213 10.6667Z" fill="#C1694F"/>
<path d="M40 11.7333C40 13.4933 35.8773 14.6667 29.3333 14.6667C22.788 14.6667 18.6667 13.4933 18.6667 11.7333C18.6667 10.9787 18.8027 10.1667 19.0387 9.33333C22.2227 12 36.444 12 39.6293 9.33866C39.8627 10.1693 40 10.98 40 11.7333Z" fill="#292F33"/>
<path d="M9.33333 42.3333C9.33333 41.4133 8.58667 40.6667 7.66667 40.6667C6.74667 40.6667 6 41.4133 6 42.3333V48H9.33333V42.3333Z" fill="#C1694F"/>
<path d="M13.3373 30.3333C13.3373 33.4667 10.7987 36.004 7.66667 36.004C4.53467 36.004 1.996 33.4667 1.996 30.3333C1.996 30.2187 0 30.2213 0 30.3333C0 34.568 3.43333 38 7.66667 38C11.9 38 15.3333 34.568 15.3333 30.3333C15.3333 30.2213 13.3373 30.2187 13.3373 30.3333Z" fill="#66757F"/>
<path d="M2 30.3333C2 30.8853 1.552 31.3333 1 31.3333C0.448 31.3333 0 30.8853 0 30.3333V19C0 18.448 0.448 18 1 18C1.552 18 2 18.448 2 19V30.3333ZM15.3333 30.3333C15.3333 30.8853 14.8853 31.3333 14.3333 31.3333C13.7813 31.3333 13.3333 30.8853 13.3333 30.3333V19C13.3333 18.448 13.7813 18 14.3333 18C14.8853 18 15.3333 18.448 15.3333 19V30.3333ZM8.66667 41.3333C8.66667 41.8853 8.21867 42.3333 7.66667 42.3333C7.11467 42.3333 6.66667 41.8853 6.66667 41.3333V19C6.66667 18.448 7.11467 18 7.66667 18C8.21867 18 8.66667 18.448 8.66667 19V41.3333Z" fill="#66757F"/>
</svg>
