<svg width="73" height="70" viewBox="0 0 73 70" fill="none" xmlns="http://www.w3.org/2000/svg">
<path d="M69.5649 41.1287L69.5434 41.1394C67.0068 43.0846 65.9321 46.3948 66.835 49.458L66.8457 49.4796C68.2858 54.3483 64.7178 59.2597 59.6447 59.3888H59.6233C56.4205 59.4748 53.6046 61.5167 52.5406 64.5368V64.5475C50.8423 69.3409 45.0603 71.2217 40.8795 68.3305C38.2834 66.5578 34.8515 66.4653 32.1202 68.3305H32.1095C27.9288 71.2109 22.1465 69.3408 20.4591 64.5367C19.3855 61.509 16.5738 59.4745 13.3765 59.3886H13.355C8.2822 59.2596 4.71387 54.3481 6.15412 49.4794L6.16481 49.4579C7.06741 46.3947 5.99268 43.0845 3.45644 41.1393L3.43491 41.1286C-0.59549 38.0331 -0.59549 31.9716 3.43491 28.8764L3.45644 28.8657C5.99268 26.9204 7.06741 23.6101 6.15412 20.547V20.5255C4.70303 15.6569 8.28205 10.7452 13.355 10.6163H13.3765C16.5685 10.5303 19.3951 8.4882 20.4591 5.46822V5.45752C22.1464 0.664145 27.9288 -1.21664 32.1095 1.67456H32.1202C34.7532 3.49089 38.2354 3.49089 40.8795 1.67456C45.1024 -1.24164 50.8523 0.692907 52.5406 5.45752V5.46822C53.6046 8.4775 56.4204 10.5304 59.6233 10.6163H59.6447C64.7176 10.7452 68.2858 15.6569 66.8457 20.5255L66.835 20.547C65.9321 23.6101 67.0068 26.9204 69.5434 28.8657L69.5649 28.8764C73.5953 31.9716 73.5953 38.0333 69.5649 41.1287Z" fill="#3EB655"/>
<path d="M36.5005 55.02C47.5573 55.02 56.5205 46.0568 56.5205 35C56.5205 23.9432 47.5573 14.98 36.5005 14.98C25.4437 14.98 16.4805 23.9432 16.4805 35C16.4805 46.0568 25.4437 55.02 36.5005 55.02Z" fill="#8BD399"/>
<path opacity="0.1" d="M51.8713 22.1848C48.4085 19.3361 43.9782 17.6239 39.1485 17.6239C28.0919 17.6239 19.1237 26.592 19.1237 37.6487C19.1237 42.4783 20.836 46.9087 23.6846 50.3715C19.2849 46.7014 16.4824 41.1807 16.4824 34.9997C16.4824 23.9429 25.4429 14.9826 36.4996 14.9826C42.6806 14.9826 48.2013 17.785 51.8713 22.1848Z" fill="black"/>
<path d="M31.7366 42.8374L27.3094 38.1274C26.15 36.8936 26.2098 34.9539 27.4431 33.7945C28.6764 32.6336 30.617 32.6959 31.7754 33.9287L33.8888 36.1762L42.8718 25.909C43.9853 24.6348 45.922 24.5056 47.1972 25.6206C48.4714 26.7357 48.6 28.6718 47.4856 29.946L36.2764 42.7566C35.0823 44.1199 32.9749 44.1556 31.7366 42.8374Z" fill="white"/>
</svg>
